/* XPM */
static char *_4c14219f8f84a0ada2a6c4522000b26L6smAZRlnSTDeIhx[] = {
/* columns rows colors chars-per-pixel */
"32 32 20 1 ",
"  c #383038",
". c #585838",
"X c #606830",
"o c #786838",
"O c #585058",
"+ c #A02020",
"@ c #F82850",
"# c #907040",
"$ c #488848",
"% c #58A860",
"& c #A08048",
"* c #B89058",
"= c #D08847",
"- c #C0A060",
"; c #D0B060",
": c #F0B067",
"> c #602880",
", c #8030E0",
"< c #B0A8B0",
"1 c #F8E0B7",
/* pixels */
"o&&-&#&;*&**o&*&#;;&#*#****#-*;-",
"X##&&*&&&#&&&&#@##*##*#*&#***&;;",
"-*-;&*-******-@+@**##&;;;&--;;*;",
"*#**;*--*&&*#@@ @@***&#&--*&#-&&",
"#*&&-*-;-****@+ +@-&&***-&*&##-#",
"&**-@@@@@---@@   @@--;@@@@@&;#--",
";&&**@@++@@@@+   +@@@@++@@*&#&--",
"**-#&*@@+             +@@;;;**;;",
"**-&*;;@@+           +@@;---&&*;",
"-**;;&;*@@+         +@@;;--&-;&*",
"-;;;-;;,,             ,,-;;;;;**",
"-----*,,>             >,,;;;;;;-",
"**-*&,,,,>           >,,,,--&;**",
"****###*,,>         >,,;;;;;----",
"-;;&&**;;*,>>     >>,*-;;-;;*---",
"****;;;*;,,,,>>>>>,,,,**&**&&&;&",
"*#X#*;***;;,>     >,*&*****&*&&*",
"&&oo-&&*-*;=       =&&&o&&&*&&Xo",
"&--o--*;;;=: >>>>> :=;;-*&&&&*&&",
"*---;--;;=:=>>,>,>>=:=;*;*;*&&**",
"o#*&**&;;  >>>, ,>>>  -#;;;--*;&",
"&o&-&&&&=:1>,>, ,>,>1:=*******&o",
"**&&&&o&=: >,>, ,>,> :=*;;-o&&&&",
";-;*--&*&= >,>> >>,> =#&*;-**&&&",
";-----&;;#           -**;--;;-**",
"$o&*-;***& -O,>*>,O* &&&*---;-&*",
"**&&&&&&;;-*O,>&>,O*&*&&..&---*-",
"**;;;**;;;-*O,>&>,O&**&-&oo&*&*&",
";*;;;;&;*&-O<<O O<<O&*o&&&&o*&#o",
"**;*;;**;*& OO   OO o&ooo&&&&&&o",
"*&*&&*;;*&*&   *   ;*&&&oX&o&$%&",
"&*-&&**;;&*;***-&*&*-&*&o&Xo&$%o"
};
