/* XPM */
static char *result[] = {
/* columns rows colors chars-per-pixel */
"32 32 32 1 ",
"  c #282828",
". c #583828",
"X c #606830",
"o c #786838",
"O c #204040",
"+ c #506078",
"@ c #D06028",
"# c #907040",
"$ c #488848",
"% c #508078",
"& c #788078",
"* c #58A860",
"= c #A08048",
"- c #B89058",
"; c #C0A060",
": c #D0B060",
"> c #B8C860",
", c #5040F8",
"< c #5868F8",
"1 c #28B0B0",
"2 c #20B8F8",
"3 c #6890C0",
"4 c #50A0D0",
"5 c #68B0C0",
"6 c #68B0F8",
"7 c #68D0C0",
"8 c #78D8F8",
"9 c #88C8F8",
"0 c #A8D8F8",
"q c #B0D8F8",
"w c #B0F8F8",
"e c #F8F8F0",
/* pixels */
"o=                            :;",
"X# 22222222222222222222222222 ::",
";- 2                        2 -:",
"-# 2 +  5w.@.e%e%e.@.w5+... 2 ==",
"#- 2 ee+ 5w4e+eee+e&w5+366% 2 ;#",
"=- 2 +5e+ 5w4e+w+e&w5+3we%. 2 ;;",
":= 2 5+5e+ 3O+e4e%%3+3we%.@ 2 ;;",
"-- 2 e5+503OO+3w33++36e%5ee 2 ::",
"-- 2 4e4+ww+33 3+93+w9e5e53 2 -:",
";- 2 44eee93ww3 3ww+weew53  2 =-",
";: 2 49ee03+9ee39ee+3weew+  2 --",
";; < 9ee0++ 39w33qq++3333+9 2 :;",
"-- < 9e0+  ++++9w3++OOOO+3w 2 --",
"-- < 90%3+w3w44w5w44+83w39w 2 ;;",
";: < 7%6w3e+3ww%+%w+ e83w39 2 ;;",
"-- < wO%6w6 O%%9w9%OO e+9w3 2 :=",
"-# 2 05O%6  5O9w3w93@+ O%39 2 =-",
"== 2 %+3O O w++3+3+93@ 039w 2 Xo",
"=; 2 +93weO e+     +9>O039w 2 ==",
"-; < 603weO e  OOOO w> 039w 2 --",
"o# 2 6039eO w O++++Ow> O06w 2 :=",
"=o 2 6063w% 5 O%%%+Ow>  03w 2 =o",
"-- 2 +60639 % O5%5+Ow>  039 2 ==",
":; 2 @+60%+0% O5%5+O9> O1+6 2 ==",
":; 2 >@+%+++0 O5%5+O3> %+++ 2 --",
"$o 2                        2 =-",
"-- 222222222222<2222<2<222<22 -;",
"-- 2,,<<<<,,,<<<<,<,<,<,<,,<2 -=",
":- 2,<<<,,,,<<<2<2<<<<,,,<<<2 #o",
"-- 2<<2<<<<,,<<<2<<<<<<,<<,,2 =o",
"-= 22<<22<22<<22<222222222222 *=",
"=-                            *o"
};
