/* XPM */
static char *result[] = {
/* columns rows colors chars-per-pixel */
"32 32 37 1 ",
"  c #282828",
". c #583828",
"X c #606830",
"o c #786838",
"O c #882828",
"+ c #A02828",
"@ c #F82828",
"# c #884830",
"$ c #B04028",
"% c #806830",
"& c #B06830",
"* c #E87018",
"= c #D06028",
"- c #907040",
"; c #488848",
": c #58A860",
"> c #C09018",
", c #E89018",
"< c #F89018",
"1 c #F8A810",
"2 c #E8B018",
"3 c #D08028",
"4 c #F8C810",
"5 c #F8E810",
"6 c #A08048",
"7 c #B89058",
"8 c #C0A060",
"9 c #D0B060",
"0 c #F8A860",
"q c #90D068",
"w c #B8E860",
"e c #F8D850",
"r c #F8F850",
"t c #E0A8B8",
"y c #D0F8A8",
"u c #F8F8A8",
"i c #F8F8F0",
/* pixels */
"o6                            98",
"X- yyyyyyyyyyyyyyyyyyyyyyyyyy 99",
"87 y                        y 79",
"7- y ...&.4##0u$=**=$e&+urr y 66",
"-7 y ...&.r1.#0=uu,2,*e&Our y 8-",
"67 y ..&4ru1..#0uu3>52*e&Ou y 88",
"96 y .*11@u$,$.#0u35252=e&O y 88",
"77 y ..r.#u3434.#3>r>2523e& y 99",
"77 y ##5#r*ru,r&.uu5=>2>=u* y 79",
"87 y &&&5*.u$r3435r=$###&u< y 67",
"89 y 0,3&&#$r34#=32$#4r4#u1 y 77",
"88 w uuuur&334$3$4r#ur3##u1 y 98",
"77 w uuur&r$2$34=..#r4.##u1 y 77",
"77 w uur&r3#$34=u$.33.#=#u1 y 88",
"89 w uu3##..#%=u>u$1.#>=#u1 y 88",
"77 w uu,43#..##3u>%Ou#2=#u1 y 96",
"7- y uur3i3it.143u%3&u>=#u1 y 67",
"66 y ur2r3i3#.3143#43uu=#u1 y Xo",
"68 y r1#3r&13.1ru1#r1uuu#r< y 66",
"78 w &1u#&1r&.3113#513$u=e= y 77",
"o- y &1u+1r*3.$==$#13e=ur1$ y 96",
"6o y u&3***3#.###u.#e1=ue<$ y 6o",
"77 y u#&2r2#...uu.#$==ur<=O y 66",
"98 y u.###&uuuuu.#uuuur<=Ou y 66",
"98 y &#..uuuuu#...#&ur<=Ouu y 77",
";o y                        y 67",
"77 yyyyyyyyyyyywyyyywywyyyqyy 78",
"77 yqqwwwwqqqwwwwqwqwqwqwqqqy 76",
"97 yqwwwqqqqwwwywywwwwqqqwqqy -o",
"77 ywwywwwwqqwwwywwwwwwqwwqqy 6o",
"76 yywwyywyywwyywyyyyyyyyyyyy :6",
"67                            :o"
};
