/* XPM */
static char *result[] = {
/* columns rows colors chars-per-pixel */
"32 32 45 1 ",
"  c #282828",
". c #583828",
"X c #606830",
"o c #786838",
"O c #204040",
"+ c #506078",
"@ c #882828",
"# c #A02828",
"$ c #D02828",
"% c #F82828",
"& c #884830",
"* c #B06830",
"= c #E04028",
"- c #D06028",
"; c #F86028",
": c #F82878",
"> c #907040",
", c #A06078",
"< c #F85068",
"1 c #D06078",
"2 c #E87068",
"3 c #F86078",
"4 c #488848",
"5 c #508078",
"6 c #58A860",
"7 c #E89018",
"8 c #D08028",
"9 c #B8E810",
"0 c #F8F800",
"q c #A08048",
"w c #B89058",
"e c #E89068",
"r c #C0A060",
"t c #D0B060",
"y c #D0F850",
"u c #F8F850",
"i c #F84080",
"p c #E870C0",
"a c #5098F8",
"s c #F888B8",
"d c #F8A8B8",
"f c #F8C8B8",
"g c #B0D8F8",
"h c #F8D8F8",
"j c #F8F8F0",
/* pixels */
"oq                            tr",
"X> ;;;;;;;;;;;;;;;;;;;;;;;;;; tt",
"rw ;                        ; wt",
"w> ; &.&.-y.*.&-&-7u-&7uu7* ; qq",
">w ; -.-.-%y*.&-&-u@u&u$:u7 ; r>",
"qw ; 9.-.y %y.y-&-u#u&uu$:u ; rr",
"tq ; s9yy%# %y@-&u@$u&u:u$s ; rr",
"ww ; :s#%s%##%@-u@$h:u=suhh ; tt",
"ww ; #:h#%uu###u@$h:s=h=us3 ; wt",
"rw ; ##:h###@%%,$h:s=h=%us$ ; qw",
"rt ; <sshds@pageh:s h=h%us$ ; ww",
"rr = #<$@@@df###:s  =h%9u3$ ; tr",
"ww = <$@  $22<g##:h#h%sh3#$ ; ww",
"ww = $@@ $hhh2j2O5sh%s@@@$@ ; rr",
"rt = yyy@h@  +g2@O5s%@9@$@. ; rr",
"ww = .*.y@$@+h2$@O5i.9u$@.9 ; tq",
"w> ; .*.-y@Oh2 i@O5:.u$@.9& ; qw",
"qq ; .-.-y&h2  s@O5.9$@9.u& ; Xo",
"qr ; .-.-&y2   jO5%#%99%#u& ; qq",
"wr = .-.-&y9#$gO:j#@#%%#9*& ; ww",
"o> ; .-.-&ygj#$%g:#....9&*& ; tq",
"qo ; .-&-ygj$9000i#uuuu*&*& ; qo",
"ww ; .-&-y1%9.&-u:#u&8&*&*& ; qq",
"tr ; .-&-&00&.&ujg#9&8&*&*& ; qq",
"tr ; .-&-&..&.ujga9*&8&*&*& ; ww",
"4o ;                        ; qw",
"ww ;;;;;;;;;;;;=;;;;=;=;;;$;; wr",
"ww ;$$====$$$====$=$=$=$=$$$; wq",
"tw ;$===$$$$===;=;====$$$=$$; >o",
"ww ;==;====$$===;======$==$$; qo",
"wq ;;==;;=;;==;;=;;;;;;;;;;;; 6q",
"qw                            6o"
};
