/* XPM */
static char *result[] = {
/* columns rows colors chars-per-pixel */
"32 32 25 1 ",
"  c #181818",
". c #585838",
"X c #606830",
"o c #786838",
"O c #403840",
"+ c #605860",
"@ c #787078",
"# c #A81828",
"$ c #A06028",
"% c #C87828",
"& c #F82040",
"* c #907040",
"= c #488848",
"- c #58A860",
"; c #E8A028",
": c #A08048",
"> c #B89058",
", c #C0A060",
"< c #D0B060",
"1 c #F8B868",
"2 c #003898",
"3 c #4080F8",
"4 c #B0A8B0",
"5 c #F8E0B8",
"6 c gray94",
/* pixels */
"o::,:*:<>:>>o%%$%%<:*>*>>>>*,><,",
"X**::>:::*::%;%%%;%**>*>:*>>>:<<",
",>,<:>,>>>>%11;;;;;%*:<<<:,,<<><",
">*>><>,,>:%;511;;;;;%:*:,,>:*,::",
"*>::,>,<,%%15111;1;;%$>>,:>:**,*",
":>>,<,:>>%;5115111;1;$,>::>:<*,,",
"<::>><<,$%;51;5;;1;;;%$<>:>:*:,,",
">>,*:><>$%;5;%1;%;;;;%$<,<<<>><<",
">>,:><<<<$;1;$;;$;%;%$<<<,,,::><",
",>><<:<>:,$%$$%;$%;%$<<<<,,:,<:>",
",<<<,<<:><$$%1$%$1$$$,,,,<<<<<>>",
",,,,,>>,<>>%14O$O41%<,,,<<<<<<<,",
">>,>::><>::%1621261@<<<<<,,,:<>>",
">>>>***><:<@%6353146>,<<<<<<,,,,",
",<<::>><<>>4@$151464>>,<<,<<>,,,",
">>>><<<><<:O4#OO#44O::>>:>>:::<:",
">*X*><>>><OO@&;+&@O+O:>>>>>:>::>",
"::oo,::>,>O+46O#64O+O::o:::>::Xo",
":,,o,,><<%1+66+@66O@+<<,>::::>::",
">,,,<,,<<%5164O+46O@+O<><><>::>>",
"o*>:>>:<<>%%6@46@6%11%,*<<<,,><:",
":o:,::::>*:46+OO+6%55%,>>>>>>>:o",
">>::::o:o*464OOOO46%%::><<,o::::",
"<,<>,,:>:o46+OOOO+64:>*:><,>>:::",
"<,,,,,:<<464#OOO@@464,>><,,<<,>>",
"=o:>,<>>>464 OOOOO464:::>,,,<,:>",
">>::::::<464 @@+  464>::..:,,,>,",
">><<<>><< 44O@@+O 44  :,:oo:>:>:",
"<><<<<:<>  4O++OO 4   o::::o>:*o",
">><><<>><>   OOO     :ooo::::::o",
">:>::><<>:>:       <>:::oX:o:=-:",
":>,::>><<:><>>>,:>:>,:>:o:Xo:=-o"
};
