/* XPM */
static char *result[] = {
/* columns rows colors chars-per-pixel */
"32 32 25 1 ",
"  c black",
". c #191306",
"X c #221B0C",
"o c #2E2511",
"O c #4C3B14",
"+ c #664F1B",
"@ c #675324",
"# c #606830",
"$ c #786838",
"% c #81672A",
"& c #8A6F30",
"* c #8A7135",
"= c #927634",
"- c #957935",
"; c #907040",
": c #488848",
"> c #58A860",
", c #A4853C",
"< c #AD8D41",
"1 c #A08048",
"2 c #B08F42",
"3 c #B99747",
"4 c #B89058",
"5 c #C0A060",
"6 c #D0B060",
/* pixels */
"$1151;164144$141;661;4;4444;5465",
"#;;114111;111      ;;4;41;444166",
"54561454444          16661556646",
"4;446455   333333&&33   5541;511",
";41154  **-&&----&&&&-**  41;;5;",
"144565    &&&&&&&&&&&&&&  416;55",
"6114  3  &&&&&&&&&&&&&&&&3  ;155",
"445;     &&&&      &&&&&&&  4466",
"445 *&&& &  33&&&&33  &&&&&* 146",
"544 *&  && 3&&++++&&3 &&&&&* 614",
"566 o && 3&+        +&3 &&&&3 44",
"55 3 &@ <%O   ....   O%< @&&3 65",
"44 3@& 3+    +3333+    +3 &&& 44",
"4  &X &+    +3333&&+    +& X&  5",
"     3+    .333  &&&.   +&3     ",
" ++++++    .&3    &&.    ++++++ ",
" ++++++    .&&    &&.    ++++++ ",
"     &+    .&&&  &&&.    +&     ",
"1  &. 3+    +&&&&&&+    +3 .&  1",
"45 3&+ &+    +&&&&+    +& +&3 44",
"$; 32&O -,O   ....   O,- O &3 61",
"1$1 33&+ &3O        +3& +  - 41$",
"441 *3&&++ -33++++33& ++   * 111",
"656 *33&&&  &&3333&&  &&&& * 111",
"6555  33&&&%+      +%&&&    6544",
":$14  33&&&&&++++++&&&&& 3  6514",
"441111  33&&&&&&&&&&&&    155545",
"446664  **-=&&&&&&&&@o**  $14141",
"64666616   33&&&&&&33   111$41;$",
"44646644641          1$$$111111$",
"4141146641411      64111$#1$1:>1",
"145114466146444514145141$1#$1:>$"
};
