/* XPM */
static char *result[] = {
/* columns rows colors chars-per-pixel */
"32 32 10 1 ",
"  c #585838",
". c #606830",
"X c #786838",
"o c #907040",
"O c #488848",
"+ c #58A860",
"@ c #A08048",
"# c #B89058",
"$ c #C0A060",
"% c #D0B060",
/* pixels */
"X@@$@o@%#@##X@#@o%%@o#o####o$#%$",
".oo@@#@@@o@@@@o#oo#oo#o#@o###@%%",
"$#$%@#$######$$####oo@%%%@$$%%#%",
"#o##%#$$#@@#o###@o###@o@$$#@o$@@",
"o#@@$#$%$######@@$$@@###$@#@oo$o",
"@##$%$@##$$$##@##%%$$%$#@@#@%o$$",
"%@@##%%$#%###@##%%%#@@$%#@#@o@$$",
"##$o@#%#$$%@#%####$%%@$%$%%%##%%",
"##$@#%%%%%@%$%%$@%%$$%%%%$$$@@#%",
"$##%%@%#@$@%%%%%%%%%@%%%%$$@$%@#",
"$%%%$%%@#%@%#%@@$%%%%$$$$%%%%%##",
"$$$$$##$%##o@%%%%#$%%$$$%%%%%%%$",
"##$#@@#%#@@$$$@#%%%%%%%%%$$$@%##",
"####ooo#%@%##%$#@#@$#$%%%%%%$$$$",
"$%%@@##%%###$%%%$XX@##$%%$%%#$$$",
"####%%%#%%@##%%%%%%@@@##@##@@@%@",
"#o.o#%###%%%#@@$#%%%#@#####@#@@#",
"@@XX$@@#$#%#%@######@@@X@@@#@@.X",
"@$$X$$#%%%@%$##%%$#%%%%$#@@@@#@@",
"#$$$%$$%%$$#%%#%%#$##$%#%#%#@@##",
"Xo#@##@%%#$$$$#$%@$###$o%%%$$#%@",
"@X@$@@@@#o@$%@$$%$$$$$$#######@X",
"##@@@@X@Xo#o%@o@$@@$@@@#%%$X@@@@",
"%$%#$$@#@X$@#X@XX@@$@#o@#%$##@@@",
"%$$$$$@%%o%##%%@o#@@@$##%$$%%$##",
"OX@#$%###@@$$#%#$$%#@@@@#$$$%$@#",
"##@@@@@@%%$#@@$@#$@#@#@@  @$$$#$",
"##%%%##%%%$#@@@@X@@@##@$@XX@#@#@",
"%#%%%%@%#@$#@#XX.@#@@#X@@@@X#@oX",
"##%#%%##%#@##%##.@%#X@XXX@@@@@@X",
"#@#@@#%%#@#@@$$#.#%%#@@@X.@X@O+@",
"@#$@@##%%@#%###$@#@#$@#@X@.X@O+X"
};
