/* XPM */
static char *result[] = {
/* columns rows colors chars-per-pixel */
"32 32 24 1 ",
"  c black",
". c #585838",
"X c #606830",
"o c #786838",
"O c #795546",
"+ c #795548",
"@ c #785648",
"# c #907040",
"$ c #488848",
"% c #58A860",
"& c #FF9800",
"* c #FF9900",
"= c #FF9901",
"- c #FE9A01",
"; c #FF9903",
": c #FFC205",
"> c #FFC007",
", c #FFC107",
"< c #FFC207",
"1 c #FFC109",
"2 c #A08048",
"3 c #B89058",
"4 c #C0A060",
"5 c #D0B060",
/* pixels */
"o2242#253233o232#552#3#3333#4354",
"X##223222#2222#3##3##3#32#333255",
"4345234333333443333##25552445535",
"3#3353443223#3332#3332#24432#422",
"#3224345,,,,,,,,,,,,,,,,4232##4#",
"23345423,++,,+++++,++,&,22325#44",
"52233554,+,&++=,,,=++,+,3232#244",
"334#2353,,+++>,+++,++++,45553355",
"33423555,,++,++++++,+++,54442235",
"43355253,++>++,,+=++,++,54424523",
"45554552,+<++,==,+:+,+;,45555533",
"44444334,=,+,++  O++,+,,55555554",
"33432235,,,+=+    +,=++,54442533",
"3333###3,,++++    +,+++:55554444",
"45522335,+++,      +++,,54553444",
"33335553,*+,;      ++,,,23322252",
"3#X#3533,*+,+      ++,=,33323223",
"22oo4223,++,++    +++,+,222322Xo",
"244o4435,++=,+    ++:-+,32222322",
"34445445,,++,++  ++,++,,53532233",
"o#323325,,+++,=+O+,++=,,55544352",
"2o242222,,++++,,+++++,O,3333332o",
"332222o2,=,+<++++++=,@+,554o2222",
"54534423,+,++,++++1++++,35433222",
"54444425,+=,++=+++++++=,54455433",
"$o234533,++,,+++>+++,,+,34445423",
"33222222,,:,,,,,,,,,,,,,..244434",
"3355533555432222o22233242oo23232",
"53555525324323ooX23223o2222o32#o",
"3353553353233533X253o2ooo222222o",
"3232235532322443X3553222oX2o2$%2",
"234223355235333423234232o2Xo2$%o"
};
